# ProBuilder 4.5.2
# https://unity3d.com/unity/features/worldbuilding/probuilder
# 13.09.2021 02:24:38

mtllib ./Bolt.mtl
o Bolt

g Bolt
v 0.015 0 0.02598076
v 0 0 0
v 0.015 0.03 0.02598076
v 0 0.03 0
v 0.045 0 0.02598076
v 0.045 0.03 0.02598076
v 0.06 0 -2.622683E-09
v 0.06 0.03 -2.622683E-09
v 0.04499999 0 -0.02598076
v 0.04499999 0.03 -0.02598076
v 0.015 0 -0.02598076
v 0.015 0.03 -0.02598076
v 0.02176791 -0.05201498 0.01425838
v 0.0135358 -0.05201498 0
v 0.02176791 -0.05201498 -0.01425838
v 0.03823209 -0.05201498 -0.01425838
v 0.0464642 -0.05201498 0
v 0.03823209 -0.05201498 0.01425838
v 0.02176791 -7.104874E-05 0.01425838
v 0.03823209 -7.104874E-05 0.01425838
v 0.0464642 -7.104874E-05 0
v 0.03823209 -7.104874E-05 -0.01425838
v 0.0135358 -7.104874E-05 0
v 0.02176791 -7.104874E-05 -0.01425838

vt 0.03 0
vt 0 0
vt 0.03 0.03
vt 0 0.03
vt 0.045 0
vt 0.015 0
vt 0.045 0.03
vt 0.015 0.03
vt 0.03 0
vt 0.03 0.03
vt -0.03 0
vt -0.03 0.03
vt -0.015 0
vt -0.04499999 0
vt -0.015 0.03
vt -0.04499999 0.03
vt -0.015 0.02598076
vt -0.045 0.02598076
vt -0.06 -2.622683E-09
vt -0.04499999 -0.02598076
vt -0.015 -0.02598076
vt 0.02176791 0.01425838
vt 0.0135358 0
vt 0.02176791 -0.01425838
vt 0.03823209 -0.01425838
vt 0.0464642 0
vt 0.03823209 0.01425838
vt 0.015 0.02598029
vt 0.045 0.02598028
vt 0.04499938 0.02597993
vt 0.05999917 -9.569986E-07
vt 0.04499938 -0.02597993
vt 0.01499979 0.02598088
vt 0.015 -0.02598029
vt 0.0149998 -0.02598088
vt 0.02176791 -7.104874E-05
vt 0.03823209 -7.104874E-05
vt 0.02176791 -0.05201498
vt 0.03823209 -0.05201498
vt 0.006767993 -7.104874E-05
vt 0.02323218 -7.104874E-05
vt 0.006767993 -0.05201498
vt 0.02323218 -0.05201498
vt -0.02323218 -7.104874E-05
vt -0.006767993 -7.104874E-05
vt -0.02323218 -0.05201498
vt -0.006767993 -0.05201498
vt -0.03823209 -7.104874E-05
vt -0.02176791 -7.104874E-05
vt -0.03823209 -0.05201498
vt -0.02176791 -0.05201498

vn -0.8660254 0 0.5
vn 6.208817E-08 0 1
vn 0.8660254 0 0.4999999
vn 0.8660254 0 -0.5000001
vn 0 0 -1
vn -0.8660254 0 -0.5000001
vn 0 1 0
vn 0 -1 0
vn 3.763063E-10 -0.9999816 0.006060838
vn 0.005248842 -0.9999816 0.003030419
vn 0.005248855 -0.9999816 -0.003030429
vn -0.005248855 -0.9999816 0.003030428
vn 0 -0.9999816 -0.006060838
vn -0.005248842 -0.9999816 -0.003030421
vn 0.8660245 0 0.5000015

usemtl ProBuilder_Default_URP
f 10/20/7 12/21/7 4/2/7
f 10/20/7 4/2/7 3/17/7
f 10/20/7 3/17/7 8/19/7
f 8/19/7 3/17/7 6/18/7
f 18/27/8 13/22/8 17/26/8
f 17/26/8 13/22/8 16/25/8
f 13/22/8 14/23/8 16/25/8
f 14/23/8 15/24/8 16/25/8
f 4/4/1 2/2/1 1/1/1
f 1/1/1 3/3/1 4/4/1
f 3/8/2 1/6/2 5/5/2
f 5/5/2 6/7/2 3/8/2
f 6/4/3 5/2/3 7/9/3
f 7/9/3 8/10/3 6/4/3
f 8/12/4 7/11/4 9/2/4
f 9/2/4 10/4/4 8/12/4
f 10/16/5 9/14/5 11/13/5
f 11/13/5 12/15/5 10/16/5
f 12/12/6 11/11/6 2/2/6
f 2/2/6 4/4/6 12/12/6
f 20/27/9 5/29/9 1/28/9
f 1/28/9 19/22/9 20/27/9
f 21/26/10 7/31/10 5/30/10
f 5/30/10 20/27/10 21/26/10
f 22/25/11 9/32/11 7/31/11
f 7/31/11 21/26/11 22/25/11
f 19/22/12 1/33/12 2/2/12
f 2/2/12 23/23/12 19/22/12
f 24/24/13 11/34/13 9/32/13
f 9/32/13 22/25/13 24/24/13
f 23/23/14 2/2/14 11/35/14
f 11/35/14 24/24/14 23/23/14
f 18/39/2 20/37/2 19/36/2
f 19/36/2 13/38/2 18/39/2
f 17/43/15 21/41/15 20/40/15
f 20/40/15 18/42/15 17/43/15
f 16/47/4 22/45/4 21/44/4
f 21/44/4 17/46/4 16/47/4
f 13/43/1 19/41/1 23/40/1
f 23/40/1 14/42/1 13/43/1
f 15/51/5 24/49/5 22/48/5
f 22/48/5 16/50/5 15/51/5
f 14/47/6 23/45/6 24/44/6
f 24/44/6 15/46/6 14/47/6

